# xmcd
#
# Track frame offsets:
#	150
#	23145
#	39623
#	57929
#	72202
#	87688
#	104231
#	120884
#	136627
#	152626
#	166859
#	184558
#	202037
#	219308
#
# Disc length: 3156 seconds
#
# Revision: 1
# Processed by: cddbd v1.4PL0 Copyright (c) Steve Scherf et al.
# Submitted via: audiograbber 1.80
#
DISCID=bd0c520e
DTITLE=47 Festa do Peao de Boiadeiro - barretos 2002
DYEAR=1900
DGENRE=
TTITLE0=A jiripoca vai piar - Daniel
TTITLE1=Para Pedra - Fred e Pedrito
TTITLE2=Chique no Urtimo - Cezar e \paulinho
TTITLE3=Vazio da Solidao - Chrystian e Ralf
TTITLE4=Coisinha Linda - Guto e Nando
TTITLE5=Dormi na Praça - Bruno e Marrone
TTITLE6=O Vagabundo - Joao Pedro e Cristiano
TTITLE7=Fica Amor, Ta Cedo - Rick e Renner
TTITLE8=Apáixonado por Voce - Ataide e Alexandre
TTITLE9=Paixao Caipira - Andre e Andrade
TTITLE10=Saudade esta judiando - Gian Giovani
TTITLE11=Ela Chorou de Amor - Gino e Geno
TTITLE12=Virus da Paixao - Teodoro e Sampaio
TTITLE13=Estrada da Vida - Milionario e Jose rico
EXTD=
EXTT0=
EXTT1=
EXTT2=
EXTT3=
EXTT4=
EXTT5=
EXTT6=
EXTT7=
EXTT8=
EXTT9=
EXTT10=
EXTT11=
EXTT12=
EXTT13=
PLAYORDER=
